<?xml version="1.0" standalone="no"?>
<!DOCTYPE svg PUBLIC "-//W3C//DTD SVG 20010904//EN"
 "http://www.w3.org/TR/2001/REC-SVG-20010904/DTD/svg10.dtd">
<svg version="1.0" xmlns="http://www.w3.org/2000/svg"
 width="131.000000pt" height="131.000000pt" viewBox="0 0 131.000000 131.000000"
 preserveAspectRatio="xMidYMid meet">
<metadata>
Created by potrace 1.14, written by Peter Selinger 2001-2017
</metadata>
<g transform="translate(0.000000,131.000000) scale(0.100000,-0.100000)"
fill="#000000" stroke="none">
<path d="M841 1056 c-61 -91 -111 -168 -111 -171 0 -3 28 -5 61 -5 l62 0 -6
-72 c-16 -223 -172 -347 -367 -292 -53 15 -140 62 -140 75 0 4 -7 10 -16 13
-24 9 29 -82 81 -136 170 -181 445 -157 593 50 51 71 71 153 72 289 l0 72 55
3 56 3 -112 165 c-61 91 -113 167 -115 168 -1 2 -52 -71 -113 -162z"/>
<path d="M549 1145 c-160 -56 -267 -186 -285 -346 -6 -55 -4 -56 104 -54 l72
2 0 -29 c0 -15 1 -31 2 -35 1 -5 5 -23 9 -40 l7 -33 -39 3 c-21 2 -44 0 -51
-5 -14 -8 -9 -9 60 -11 31 -1 39 -6 49 -29 7 -15 17 -28 23 -28 7 0 8 6 0 19
-5 11 -10 24 -10 28 0 5 37 9 83 8 77 0 82 -1 85 -22 2 -13 8 -23 13 -23 5 0
8 3 8 8 -5 29 3 40 25 38 14 -2 30 1 38 5 9 6 6 9 -12 10 -14 1 -30 1 -37 0
-14 -2 -22 118 -8 127 6 4 36 7 68 8 84 3 83 14 -1 14 -51 0 -72 4 -73 13 -6
91 -3 112 16 124 18 11 18 12 3 13 -18 0 -21 12 -20 88 0 19 3 37 6 40 4 3 31
5 61 4 30 0 57 3 60 8 7 12 -3 13 -71 10 -56 -2 -64 6 -55 52 l6 28 38 -36
c21 -20 41 -33 44 -30 4 4 -9 19 -28 35 -19 16 -32 31 -29 34 4 4 47 -6 119
-29 17 -5 22 -4 17 4 -23 37 -218 54 -297 27z m44 -40 c-45 -42 -51 -44 -106
-45 -32 0 -56 4 -53 8 12 20 148 75 199 81 5 1 -13 -19 -40 -44z m69 -5 l-4
-40 -47 0 -46 1 45 39 c25 22 47 40 50 40 3 0 4 -18 2 -40z m-132 -57 c0 -1
-16 -32 -36 -68 l-36 -65 -75 0 -74 0 22 39 c34 61 62 89 94 93 35 4 105 4
105 1z m120 -2 c12 -1 15 -14 13 -62 -1 -33 -3 -63 -6 -65 -2 -3 -44 -4 -91
-2 l-87 3 29 55 c32 60 55 77 98 74 16 -1 36 -3 44 -3z m-202 -150 c10 -1 10
-6 2 -21 -6 -11 -11 -40 -12 -65 l-1 -46 -81 3 c-65 2 -81 6 -79 18 5 53 16
91 27 103 11 11 71 15 144 8z m212 -36 c3 -22 3 -52 1 -67 l-3 -28 -104 0
-103 0 4 43 c10 99 4 93 108 92 l92 0 5 -40z m1 -132 c1 -13 1 -34 1 -48 0
-67 6 -63 -94 -61 l-93 1 -12 60 c-6 32 -10 62 -8 65 2 3 49 5 104 5 98 0 101
0 102 -22z"/>
<path d="M60 225 c-15 -19 2 -45 31 -45 10 0 21 -5 24 -10 10 -16 -26 -24 -47
-11 -16 10 -19 10 -16 -1 3 -7 19 -13 39 -13 47 0 53 31 10 48 -17 6 -31 17
-31 24 0 17 22 17 39 1 11 -11 13 -10 9 2 -6 21 -42 24 -58 5z"/>
<path d="M148 218 c-2 -13 -1 -36 3 -53 5 -24 7 -20 8 23 1 54 -4 68 -11 30z"/>
<path d="M189 238 c-6 -13 -3 -98 3 -98 4 0 8 9 8 20 0 14 7 20 21 20 12 0 23
-8 26 -20 3 -11 9 -20 14 -20 5 0 5 11 0 23 -5 13 -5 30 -1 37 13 21 -8 40
-41 40 -16 0 -30 -1 -30 -2z m56 -29 c0 -8 -10 -15 -22 -17 -22 -3 -32 16 -17
30 10 11 39 1 39 -13z"/>
<path d="M293 228 c-19 -25 -21 -46 -7 -67 19 -27 60 -27 76 -1 7 11 16 20 19
20 4 0 9 -9 12 -20 7 -26 62 -28 71 -4 4 9 4 19 1 22 -2 3 -7 -3 -11 -12 -8
-20 -43 -21 -50 -1 -11 27 5 65 26 65 11 0 20 -4 20 -10 0 -5 5 -10 10 -10 18
0 11 18 -10 25 -29 9 -57 -3 -64 -28 l-6 -22 -13 25 c-14 28 -58 39 -74 18z
m52 -11 c23 -18 14 -67 -13 -67 -36 0 -55 43 -30 68 15 15 20 15 43 -1z"/>
<path d="M504 232 c-18 -12 -24 -41 -14 -67 16 -42 82 -31 80 13 0 4 -7 -1
-15 -11 -21 -28 -49 -18 -53 20 -3 25 1 33 19 38 14 5 25 3 27 -4 2 -6 8 -11
14 -11 6 0 6 6 -2 15 -13 16 -38 19 -56 7z"/>
<path d="M596 221 c-28 -31 -9 -75 32 -79 27 -3 34 1 42 23 13 35 13 41 -6 59
-21 21 -47 20 -68 -3z m58 -6 c22 -22 6 -60 -25 -60 -19 0 -25 6 -27 29 -5 41
24 59 52 31z"/>
<path d="M748 229 c-22 -12 -24 -62 -4 -78 7 -6 28 -10 45 -9 25 2 31 7 31 25
0 18 -5 23 -22 22 -18 -1 -19 -2 -5 -6 14 -4 16 -8 6 -19 -17 -21 -46 -17 -52
8 -8 28 10 61 29 54 50 -21 50 -21 35 -3 -15 19 -38 21 -63 6z"/>
<path d="M840 191 c0 -51 0 -51 33 -51 22 0 28 3 18 9 -8 5 -20 7 -27 4 -10
-3 -12 6 -11 37 2 23 -1 44 -5 46 -4 3 -8 -18 -8 -45z"/>
<path d="M934 232 c-39 -25 -16 -105 28 -95 45 11 62 57 32 87 -16 17 -42 20
-60 8z m42 -10 c30 -20 18 -72 -16 -72 -22 0 -40 28 -32 50 5 14 21 30 32 30
3 0 10 -4 16 -8z"/>
<path d="M1021 191 l2 -51 34 0 c39 0 45 11 35 60 -7 30 -12 35 -40 38 l-32 3
1 -50z m57 22 c2 -8 -6 -13 -20 -13 -16 0 -25 6 -25 15 0 19 38 16 45 -2z m4
-41 c9 -9 7 -13 -5 -18 -24 -9 -48 3 -41 20 6 16 29 15 46 -2z"/>
<path d="M1144 229 c-15 -18 -35 -81 -29 -87 2 -3 7 3 11 12 8 21 40 21 53 -1
18 -31 12 8 -7 51 -14 31 -20 36 -28 25z m16 -34 c0 -8 -4 -15 -10 -15 -5 0
-10 7 -10 15 0 8 5 15 10 15 6 0 10 -7 10 -15z"/>
<path d="M1211 233 c-3 -13 -4 -62 -2 -83 1 -5 16 -9 34 -9 29 2 29 2 5 6 -24
4 -27 9 -31 51 -2 26 -5 41 -6 35z"/>
</g>
</svg>
